Coordinates
version=1
nRows=15
nColumns=34
inDegrees=yes

Units are S.I. units (second, meters, Newtons, ...)
If the header above contains a line with 'inDegrees', this indicates whether rotational values are in degrees (yes) or radians (no).

endheader
time	pelvis_tilt	pelvis_list	pelvis_rotation	pelvis_tx	pelvis_ty	pelvis_tz	hip_flexion_r	hip_adduction_r	hip_rotation_r	knee_angle_r	ankle_angle_r	subtalar_angle_r	mtp_angle_r	hip_flexion_l	hip_adduction_l	hip_rotation_l	knee_angle_l	ankle_angle_l	subtalar_angle_l	mtp_angle_l	lumbar_extension	lumbar_bending	lumbar_rotation	arm_flex_r	arm_add_r	arm_rot_r	elbow_flex_r	pro_sup_r	arm_flex_l	arm_add_l	arm_rot_l	elbow_flex_l	pro_sup_l
      7.40833330	      7.70267223	     -2.10277934	   -177.25651660	      0.20182845	      1.04138882	      0.13262185	     10.37231135	      2.51935881	      0.38157819	     37.20003448	     10.69412278	    -14.62228187	      0.00000000	     49.12175445	     -0.51302419	     -4.26853554	     91.88688945	     -3.48209531	    -22.97410980	      0.00000000	    -10.50156295	      2.16916651	      3.52661955	      8.95290103	    -24.44460592	     12.30343274	    106.54692894	     97.94424783	    -31.40950507	    -27.62802561	      2.04723036	     87.75844514	     90.38318226
      7.41666670	      7.77250660	     -1.88538764	   -176.65788399	      0.19918147	      1.05041214	      0.13408834	      6.98879671	      2.37826848	     -0.59352920	     33.77439613	      8.10241083	    -13.02221115	      0.00000000	     49.35830947	     -0.50992277	     -5.09197049	     86.34325370	     -4.72943861	    -23.29602029	      0.00000000	     -9.99513025	      2.44536254	      3.92559154	      9.06990554	    -23.99402011	     11.55351205	    107.86983007	     97.77149575	    -33.03774991	    -26.96576569	      0.90610866	     88.98883464	     90.20552279
      7.42500000	      7.83485933	     -1.58677366	   -176.11936258	      0.19564997	      1.05852704	      0.13535542	      3.44781069	      2.39636446	     -1.51394121	     30.07041764	      5.08965923	    -11.29593965	      0.00000000	     49.45287627	     -0.42905602	     -5.95071975	     80.38952115	     -5.06962891	    -22.83477190	      0.00000000	     -9.33940726	      2.79313206	      4.38085909	      9.12442626	    -23.63426299	     10.97025027	    109.08866920	     97.65710545	    -34.70391491	    -26.30210431	     -0.18408612	     90.03006963	     90.09780187
      7.43333330	      7.64554020	     -1.24443478	   -175.98927895	      0.19085632	      1.06565585	      0.13611200	     -0.22357813	      2.58950504	     -1.92916916	     26.49649426	      1.91358929	     -9.49028010	      0.00000000	     48.97280058	     -0.28933918	     -6.44512477	     74.68289846	     -4.62925746	    -21.42481971	      0.00000000	     -8.87317727	      3.17806044	      5.07029609	      9.22474362	    -23.34060346	     10.57770192	    110.43180393	     97.58441549	    -36.74246047	    -25.53808562	     -1.60815680	     91.34645160	     90.05840362
      7.44166670	      7.79662184	     -0.68814161	   -176.06087266	      0.18594743	      1.07106514	      0.13664563	     -3.33151610	      2.95504558	     -2.17906823	     23.19420087	     -1.50235384	     -7.90486715	      0.00000000	     48.59900387	     -0.29739221	     -6.57707950	     68.97963736	     -5.77823121	    -20.51206083	      0.00000000	     -7.63331359	      3.88659721	      6.07312735	      9.02613128	    -23.40172636	     10.54582021	    111.23642190	     97.57136525	    -38.50154344	    -25.05077834	     -2.27071934	     92.11408003	     90.05974391
      7.45000000	      7.30041944	     -0.17753080	   -176.38078783	      0.18163652	      1.07687975	      0.13658809	     -6.79567284	      3.30620923	     -1.73559262	     20.44569221	     -4.96835473	     -6.85440280	      0.00000000	     47.38533793	     -0.40198616	     -6.49267231	     63.22894538	     -7.55890221	    -19.39631389	      0.00000000	     -7.65436129	      4.27859888	      6.78985336	      9.28663276	    -23.24415732	     10.29603500	    112.52671478	     97.53130801	    -40.90713011	    -24.07590756	     -3.99015241	     93.82482520	     90.10284623
      7.45833330	      7.20387673	      0.38453452	   -176.75937467	      0.17819087	      1.08224750	      0.13646729	     -9.19517981	      3.63242553	     -1.17029946	     18.77512982	     -8.00972642	     -6.15165676	      0.00000000	     46.52389235	     -0.61407716	     -6.33949050	     57.42612739	     -9.21918950	    -18.01599973	      0.00000000	     -7.02258554	      4.78008793	      7.56339340	      9.55449650	    -23.21012838	     10.55071514	    112.67231526	     97.51306499	    -42.86181335	    -23.25681184	     -5.40251714	     94.97653951	     90.21080351
      7.46666670	      7.13934501	      0.98621859	   -177.21301103	      0.17524984	      1.08780365	      0.13592006	    -10.93621388	      3.96638837	     -0.41404355	     18.27937356	    -10.37352256	     -6.00807425	      0.00000000	     45.51183160	     -1.08859747	     -6.45968011	     51.21698842	    -10.45000654	    -15.90591558	      0.00000000	     -6.43468443	      5.36638127	      8.15098997	     10.06028215	    -23.04043049	     11.05645947	    112.27018711	     97.48372199	    -44.64444625	    -22.34235535	     -6.75980233	     95.87972889	     90.36346305
      7.47500000	      7.08820503	      1.68732668	   -177.51583492	      0.17298764	      1.09343175	      0.13547560	    -12.10112042	      4.44401317	      0.37236314	     18.79981796	    -11.58015546	     -6.36587680	      0.00000000	     44.28916059	     -1.63683043	     -6.72836825	     44.61628743	    -11.55194120	    -13.32418377	      0.00000000	     -5.92397076	      6.09700225	      8.63207840	     10.57828055	    -22.95271064	     11.59428840	    111.64160643	     97.45016068	    -45.95442126	    -21.53391558	     -7.77996642	     96.49643837	     90.50307463
      7.48333330	      6.90407533	      2.48417571	   -177.66666156	      0.17095557	      1.09845292	      0.13514866	    -13.08074909	      5.08709631	      1.26282213	     19.91202478	    -11.93465386	     -7.34351347	      0.00000000	     42.73442556	     -2.24173397	     -7.20530651	     37.79954621	    -12.38625338	    -10.05384118	      0.00000000	     -5.69984286	      6.93002424	      8.79712661	     11.33885512	    -22.79450705	     12.15065128	    110.49141652	     97.38341877	    -47.18550264	    -20.57689238	     -8.86528469	     97.14984496	     90.67212789
      7.49166670	      6.57870250	      3.28057851	   -177.70759588	      0.16941149	      1.10237872	      0.13507301	    -13.77454984	      5.81616988	      2.21260624	     21.97151721	    -11.81318725	     -8.85699257	      0.00000000	     40.96383415	     -2.77963566	     -7.85988024	     31.10534694	    -13.01032888	     -6.22260593	      0.00000000	     -5.74621058	      7.75233431	      8.75073972	     12.40458266	    -22.75759452	     12.83965025	    109.05760082	     97.26477591	    -48.10940062	    -19.49303425	    -10.10860291	     97.89512566	     90.87872147
      7.50000000	      6.17560819	      4.03611843	   -177.98594853	      0.16782725	      1.10476514	      0.13481797	    -14.20544733	      6.48424736	      3.34451807	     24.90295804	    -10.96000821	    -10.64136215	      0.00000000	     39.16450259	     -3.41821515	     -8.80288086	     25.09334933	    -13.63829410	     -2.43683276	      0.00000000	     -5.93686014	      8.49283798	      9.32531919	     12.98594469	    -22.93338782	     12.90175312	    107.74761968	     97.17992304	    -48.68306922	    -18.87411757	    -10.85327947	     98.57764211	     90.95603359
      7.50833330	      5.57338289	      4.86568382	   -178.16491863	      0.16662337	      1.10572259	      0.13456785	    -14.53138874	      7.30817191	      4.38245413	     28.53298200	    -10.19936321	    -12.94024701	      0.00000000	     37.49789102	     -4.09804594	     -9.61569678	     20.28411512	    -13.99217797	      1.57445191	      0.00000000	     -6.49541798	      9.29245291	      9.61555865	     14.01444568	    -22.98075294	     12.83523279	    106.44735305	     97.06337472	    -49.31084471	    -18.11838023	    -11.78576764	     99.61289388	     91.02879863
      7.51666670	      4.96406936	      5.56295806	   -178.31715939	      0.16557689	      1.10511926	      0.13458438	    -14.53385369	      8.00658069	      5.12886559	     32.85988832	     -9.47856382	    -15.26388574	      0.00000000	     36.15419854	     -4.62020146	    -10.13155130	     16.65284611	    -14.32931520	      4.90285466	      0.00000000	     -7.09734346	      9.89409465	      9.66414382	     14.84934560	    -23.12163434	     13.18791688	    106.09817574	     96.93895515	    -50.02545274	    -17.26092453	    -12.90727745	    100.84853268	     91.09456187
      7.52500000	      4.40045598	      6.08762028	   -178.47102336	      0.16467054	      1.10343563	      0.13462440	    -14.27384345	      8.52437693	      5.62107281	     37.59855276	     -8.98341263	    -17.55576897	      0.00000000	     35.09037167	     -4.96750329	    -10.26434133	     14.05164802	    -14.62210980	      7.33878588	      0.00000000	     -7.70785885	     10.24721362	      9.60683056	     15.51303703	    -23.23029035	     13.57401367	    106.05434455	     96.77253474	    -50.54985982	    -16.44870871	    -14.06562828	    102.04150604	     91.16347497
